<svg xmlns="http://www.w3.org/2000/svg" width="3587" height="885" viewBox="0 0 3587 885" font-family="Inter, 'Segoe UI', Helvetica, Arial, sans-serif">
<title>Infraestructura AWS</title>
<defs><marker id="arrow" viewBox="0 0 10 10" refX="10" refY="5" markerWidth="9" markerHeight="9" markerUnits="userSpaceOnUse" orient="auto-start-reverse"><path d="M0,0 L10,5 L0,10 z" fill="#4a5361"/></marker></defs>
<rect width="100%" height="100%" fill="#ffffff"/>
<g data-id="aws"><rect x="298" y="24" width="2906" height="836.5" rx="6" fill="none" stroke="#232f3e" stroke-width="1.5"/>
<svg x="306" y="32" xmlns="http://www.w3.org/2000/svg" width="22" height="22" viewBox="0 0 22 22"><rect width="22" height="22" rx="3" fill="#232f3e"/><svg x="3" y="3" width="16" height="16" viewBox="0 0 24 24" color="#ffffff"><path fill="none" stroke="currentColor" stroke-linecap="round" stroke-linejoin="round" stroke-width="2" d="M17 18.5a15.2 15.2 0 0 1-7.37 1.44A14.6 14.6 0 0 1 3 17m16.5 4c.907-1.411 1.451-3.323 1.5-5c-1.197-.773-2.577-.935-4-1M3 11V6.5a1.5 1.5 0 0 1 3 0V11M3 9h3m3-4l1.2 6L12 7l1.8 4L15 5m3 5.25c0 .414.336.75.75.75H20a1 1 0 0 0 1-1V9a1 1 0 0 0-1-1h-1a1 1 0 0 1-1-1V6a1 1 0 0 1 1-1h1.25a.75.75 0 0 1 .75.75"/></svg></svg>
<text x="336" y="46" font-size="12" font-weight="600" fill="#232f3e" text-anchor="start">AWS Cloud</text>
</g>
<g data-id="eu-west-1"><rect x="855" y="89" width="2324" height="751.5" rx="6" fill="none" stroke="#00a4a6" stroke-width="1.5" stroke-dasharray="6 4"/>
<svg x="863" y="97" xmlns="http://www.w3.org/2000/svg" width="22" height="22" viewBox="0 0 22 22"><rect width="22" height="22" rx="3" fill="#00a4a6"/><svg x="3" y="3" width="16" height="16" viewBox="0 0 24 24" color="#ffffff"><path fill="none" stroke="currentColor" stroke-linecap="round" stroke-linejoin="round" stroke-width="2" d="M5 5a5 5 0 0 1 7 0a5 5 0 0 0 7 0v9a5 5 0 0 1-7 0a5 5 0 0 0-7 0zm0 16v-7"/></svg></svg>
<text x="893" y="111" font-size="12" font-weight="600" fill="#00a4a6" text-anchor="start">Región eu-west-1</text>
</g>
<g data-id="vpc"><rect x="1032" y="154" width="1469" height="666.5" rx="6" fill="none" stroke="#8c4fff" stroke-width="1.5"/>
<svg x="1040" y="162" xmlns="http://www.w3.org/2000/svg" width="22" height="22" viewBox="0 0 22 22"><rect width="22" height="22" rx="3" fill="#8c4fff"/><svg x="3" y="3" width="16" height="16" viewBox="0 0 24 24" color="#ffffff"><g fill="none" stroke="currentColor" stroke-linecap="round" stroke-linejoin="round" stroke-width="2"><path d="M19 18a3.5 3.5 0 0 0 0-7h-1c.397-1.768-.285-3.593-1.788-4.787s-3.6-1.575-5.5-1S7.397 7.232 7 9c-2.199-.088-4.155 1.326-4.666 3.373S2.898 16.527 4.9 17.4"/><path d="M8 16a1 1 0 0 1 1-1h6a1 1 0 0 1 1 1v3a1 1 0 0 1-1 1H9a1 1 0 0 1-1-1zm2-1v-2a2 2 0 1 1 4 0v2"/></g></svg></svg>
<text x="1070" y="176" font-size="12" font-weight="600" fill="#8c4fff" text-anchor="start">VPC producción</text>
</g>
<g data-id="az-a"><rect x="1197" y="463" width="1279" height="337.5" rx="6" fill="none" stroke="#147eba" stroke-width="1.5" stroke-dasharray="6 4"/>

<text x="1213" y="485" font-size="12" font-weight="600" fill="#147eba" text-anchor="start">Zona de disponibilidad A</text>
</g>
<g data-id="az-b"><rect x="1207" y="219" width="1034" height="235.5" rx="6" fill="none" stroke="#147eba" stroke-width="1.5" stroke-dasharray="6 4"/>

<text x="1223" y="241" font-size="12" font-weight="600" fill="#147eba" text-anchor="start">Zona de disponibilidad B</text>
</g>
<g data-id="public-a"><rect x="1211" y="497" width="304" height="199" rx="6" fill="#f2f6e8" stroke="#7aa116" stroke-width="1.5"/>
<svg x="1219" y="505" xmlns="http://www.w3.org/2000/svg" width="22" height="22" viewBox="0 0 22 22"><rect width="22" height="22" rx="3" fill="#7aa116"/><svg x="3" y="3" width="16" height="16" viewBox="0 0 24 24" color="#ffffff"><g fill="none" stroke="currentColor" stroke-linecap="round" stroke-linejoin="round" stroke-width="2"><path d="M5 13a2 2 0 0 1 2-2h10a2 2 0 0 1 2 2v6a2 2 0 0 1-2 2H7a2 2 0 0 1-2-2z"/><path d="M11 16a1 1 0 1 0 2 0a1 1 0 1 0-2 0m-3-5V6a4 4 0 0 1 8 0"/></g></svg></svg>
<text x="1249" y="519" font-size="12" font-weight="600" fill="#248814" text-anchor="start">Subred pública A</text>
</g>
<g data-id="private-a"><rect x="1678" y="517.5" width="784" height="269" rx="6" fill="#e6f6f7" stroke="#00a4a6" stroke-width="1.5"/>
<svg x="1686" y="525.5" xmlns="http://www.w3.org/2000/svg" width="22" height="22" viewBox="0 0 22 22"><rect width="22" height="22" rx="3" fill="#00a4a6"/><svg x="3" y="3" width="16" height="16" viewBox="0 0 24 24" color="#ffffff"><g fill="none" stroke="currentColor" stroke-linecap="round" stroke-linejoin="round" stroke-width="2"><path d="M5 13a2 2 0 0 1 2-2h10a2 2 0 0 1 2 2v6a2 2 0 0 1-2 2H7a2 2 0 0 1-2-2z"/><path d="M11 16a1 1 0 1 0 2 0a1 1 0 0 0-2 0m-3-5V7a4 4 0 1 1 8 0v4"/></g></svg></svg>
<text x="1716" y="539.5" font-size="12" font-weight="600" fill="#147eba" text-anchor="start">Subred privada A</text>
</g>
<g data-id="public-b"><rect x="1221" y="253" width="294" height="167" rx="6" fill="#f2f6e8" stroke="#7aa116" stroke-width="1.5"/>
<svg x="1229" y="261" xmlns="http://www.w3.org/2000/svg" width="22" height="22" viewBox="0 0 22 22"><rect width="22" height="22" rx="3" fill="#7aa116"/><svg x="3" y="3" width="16" height="16" viewBox="0 0 24 24" color="#ffffff"><g fill="none" stroke="currentColor" stroke-linecap="round" stroke-linejoin="round" stroke-width="2"><path d="M5 13a2 2 0 0 1 2-2h10a2 2 0 0 1 2 2v6a2 2 0 0 1-2 2H7a2 2 0 0 1-2-2z"/><path d="M11 16a1 1 0 1 0 2 0a1 1 0 1 0-2 0m-3-5V6a4 4 0 0 1 8 0"/></g></svg></svg>
<text x="1259" y="275" font-size="12" font-weight="600" fill="#248814" text-anchor="start">Subred pública B</text>
</g>
<g data-id="private-b"><rect x="1678" y="258.5" width="549" height="182" rx="6" fill="#e6f6f7" stroke="#00a4a6" stroke-width="1.5"/>
<svg x="1686" y="266.5" xmlns="http://www.w3.org/2000/svg" width="22" height="22" viewBox="0 0 22 22"><rect width="22" height="22" rx="3" fill="#00a4a6"/><svg x="3" y="3" width="16" height="16" viewBox="0 0 24 24" color="#ffffff"><g fill="none" stroke="currentColor" stroke-linecap="round" stroke-linejoin="round" stroke-width="2"><path d="M5 13a2 2 0 0 1 2-2h10a2 2 0 0 1 2 2v6a2 2 0 0 1-2 2H7a2 2 0 0 1-2-2z"/><path d="M11 16a1 1 0 1 0 2 0a1 1 0 0 0-2 0m-3-5V7a4 4 0 1 1 8 0v4"/></g></svg></svg>
<text x="1716" y="280.5" font-size="12" font-weight="600" fill="#147eba" text-anchor="start">Subred privada B</text>
</g>
<g data-id="sg-payments"><rect x="1852" y="582.5" width="280" height="182" rx="6" fill="none" stroke="#dd3522" stroke-width="1.5"/>
<svg x="1860" y="590.5" xmlns="http://www.w3.org/2000/svg" width="22" height="22" viewBox="0 0 22 22"><rect width="22" height="22" rx="3" fill="#dd3522"/><svg x="3" y="3" width="16" height="16" viewBox="0 0 24 24" color="#ffffff"><g fill="none" stroke="currentColor" stroke-linecap="round" stroke-linejoin="round" stroke-width="2"><path d="M12 3a12 12 0 0 0 8.5 3A12 12 0 0 1 12 21A12 12 0 0 1 3.5 6A12 12 0 0 0 12 3"/><path d="M11 11a1 1 0 1 0 2 0a1 1 0 1 0-2 0m1 1v2.5"/></g></svg></svg>
<text x="1890" y="604.5" font-size="12" font-weight="600" fill="#dd3522" text-anchor="start">SG payments</text>
</g>
<path data-id="r-dns" d="M83.5,660 L99,660 Q105,660 105,666 L105,682 Q105,688 111,688 L287,687.5 Q293,687.5 299,687.5 L435,687.5" fill="none" stroke="#4a5361" stroke-width="1.5" marker-end="url(#arrow)"/>
<path data-id="r-web" d="M83.5,649 L287,648.5 Q293,648.5 299,648.5 L620,648.5 Q626,648.5 626,642.5 L626,601.5 Q626,595.5 632,595.5 L647.5,595.5" fill="none" stroke="#4a5361" stroke-width="1.5" marker-end="url(#arrow)"/>
<path data-id="r-waf" d="M493,584.5 L647.5,584.5" fill="none" stroke="#4a5361" stroke-width="1.5" marker-end="url(#arrow)"/>
<path data-id="r-origin" d="M705.5,590 L1407.5,590" fill="none" stroke="#4a5361" stroke-width="1.5" marker-end="url(#arrow)"/>
<path data-id="r-alb-pay" d="M1465.5,595.5 L1524,595.5 Q1530,595.5 1530,601.5 L1530,669.5 Q1530,675.5 1536,675.5 L2024,675.5" fill="none" stroke="#4a5361" stroke-width="1.5" marker-end="url(#arrow)"/>
<path data-id="r-alb-ord" d="M1465.5,584.5 L1657,584.5 Q1663,584.5 1663,578.5 L1663,363 Q1663,357 1669,357 L1865.5,357" fill="none" stroke="#4a5361" stroke-width="1.5" marker-end="url(#arrow)"/>
<path data-id="r-pay-db" d="M2082,675.5 L2347.5,675.5" fill="none" stroke="#4a5361" stroke-width="1.5" marker-end="url(#arrow)"/>
<path data-id="r-ord-db" d="M1923.5,351.5 L2118.5,351.5" fill="none" stroke="#4a5361" stroke-width="1.5" marker-end="url(#arrow)"/>
<path data-id="r-pay-queue" d="M2082,686.5 L2151,686.5 Q2157,686.5 2157,692.5 L2157,748.5 Q2157,754.5 2163,754.5 L2510,754.5 Q2516,754.5 2516,748.5 L2516,692.5 Q2516,686.5 2522,686.5 L2715,686.5" fill="none" stroke="#4a5361" stroke-width="1.5" marker-end="url(#arrow)"/>
<path data-id="r-queue-lambda" d="M2773,686.5 L2906.5,686.5" fill="none" stroke="#4a5361" stroke-width="1.5" marker-end="url(#arrow)"/>
<path data-id="r-lambda-s3" d="M2964.5,686.5 L3100,686.5" fill="none" stroke="#4a5361" stroke-width="1.5" marker-end="url(#arrow)"/>
<path data-id="r-pay-secrets" d="M2082,653.5 L2141,653.5 Q2147,653.5 2147,647.5 L2147,631.5 Q2147,625.5 2153,625.5 L2510,625.5 Q2516,625.5 2516,619.5 L2516,578.5 Q2516,572.5 2522,572.5 L2715,572.5" fill="none" stroke="#4a5361" stroke-width="1.5" marker-end="url(#arrow)"/>
<path data-id="r-pay-gw" d="M2082,664.5 L2151,664.5 Q2157,664.5 2157,658.5 L2157,642.5 Q2157,636.5 2163,636.5 L3203,637 Q3209,637 3215,637 L3473,637" fill="none" stroke="#4a5361" stroke-width="1.5" marker-end="url(#arrow)"/>
<path data-id="r-pay-ai" d="M2082,697.5 L2141,697.5 Q2147,697.5 2147,703.5 L2147,759.5 Q2147,765.5 2153,765.5 L3203,766 Q3209,766 3215,766 L3473,766" fill="none" stroke="#4a5361" stroke-width="1.5" marker-end="url(#arrow)"/>
<path data-id="r-ord-nat" d="M1865.5,346 L1465,346" fill="none" stroke="#4a5361" stroke-width="1.5" marker-end="url(#arrow)"/>
<path data-id="r-repl" d="M2404.5,675.5 L2416.5,675.5 Q2422.5,675.5 2422.5,669.5 L2422.5,357.5 Q2422.5,351.5 2416.5,351.5 L2175.5,351.5" fill="none" stroke="#4a5361" stroke-width="1.5" marker-end="url(#arrow)"/>
<rect x="139" y="695" width="100" height="19" rx="3" fill="#ffffff" opacity="0.92"/>
<text x="189" y="708" font-size="11" font-weight="400" fill="#5b6472" text-anchor="middle">Resuelve dominio</text>
<rect x="133" y="623" width="112" height="19" rx="3" fill="#ffffff" opacity="0.92"/>
<text x="189" y="636" font-size="11" font-weight="400" fill="#5b6472" text-anchor="middle">Usa la app · HTTPS</text>
<rect x="521" y="562.5" width="95" height="19" rx="3" fill="#ffffff" opacity="0.92"/>
<text x="568.5" y="575.5" font-size="11" font-weight="400" fill="#5b6472" text-anchor="middle">Filtra peticiones</text>
<rect x="737" y="593" width="93" height="19" rx="3" fill="#ffffff" opacity="0.92"/>
<text x="783.5" y="606" font-size="11" font-weight="400" fill="#5b6472" text-anchor="middle">Origen · HTTPS</text>
<rect x="1540" y="678.5" width="113" height="19" rx="3" fill="#ffffff" opacity="0.92"/>
<text x="1596.5" y="691.5" font-size="11" font-weight="400" fill="#5b6472" text-anchor="middle">/payments · HTTPS</text>
<rect x="1546.5" y="587.5" width="100" height="19" rx="3" fill="#ffffff" opacity="0.92"/>
<text x="1596.5" y="600.5" font-size="11" font-weight="400" fill="#5b6472" text-anchor="middle">/orders · HTTPS</text>
<rect x="2167" y="678.5" width="124" height="34" rx="3" fill="#ffffff" opacity="0.92"/>
<text x="2229" y="691.5" font-size="11" font-weight="400" fill="#5b6472" text-anchor="middle">Lee y escribe pagos ·</text><text x="2229" y="705.8" font-size="11" font-weight="400" fill="#5b6472" text-anchor="middle">JDBC</text>
<rect x="1962" y="354.5" width="106" height="34" rx="3" fill="#ffffff" opacity="0.92"/>
<text x="2015" y="367.5" font-size="11" font-weight="400" fill="#5b6472" text-anchor="middle">Consulta pedidos ·</text><text x="2015" y="381.8" font-size="11" font-weight="400" fill="#5b6472" text-anchor="middle">JDBC</text>
<rect x="2526" y="689.5" width="137" height="19" rx="3" fill="#ffffff" opacity="0.92"/>
<text x="2594.5" y="702.5" font-size="11" font-weight="400" fill="#5b6472" text-anchor="middle">Publica pago confirmado</text>
<rect x="2825" y="689.5" width="50" height="19" rx="3" fill="#ffffff" opacity="0.92"/>
<text x="2850" y="702.5" font-size="11" font-weight="400" fill="#5b6472" text-anchor="middle">Dispara</text>
<rect x="2996" y="689.5" width="83" height="19" rx="3" fill="#ffffff" opacity="0.92"/>
<text x="3037.5" y="702.5" font-size="11" font-weight="400" fill="#5b6472" text-anchor="middle">Guarda recibo</text>
<rect x="2545" y="575.5" width="99" height="19" rx="3" fill="#ffffff" opacity="0.92"/>
<text x="2594.5" y="588.5" font-size="11" font-weight="400" fill="#5b6472" text-anchor="middle">Lee credenciales</text>
<rect x="3257" y="611" width="136" height="19" rx="3" fill="#ffffff" opacity="0.92"/>
<text x="3325" y="624" font-size="11" font-weight="400" fill="#5b6472" text-anchor="middle">Autoriza cargo · HTTPS</text>
<rect x="3269" y="773" width="112" height="34" rx="3" fill="#ffffff" opacity="0.92"/>
<text x="3325" y="786" font-size="11" font-weight="400" fill="#5b6472" text-anchor="middle">Scoring de fraude ·</text><text x="3325" y="800.3" font-size="11" font-weight="400" fill="#5b6472" text-anchor="middle">HTTPS</text>
<rect x="1547" y="349" width="99" height="19" rx="3" fill="#ffffff" opacity="0.92"/>
<text x="1596.5" y="362" font-size="11" font-weight="400" fill="#5b6472" text-anchor="middle">Salida a Internet</text>
<rect x="2428.5" y="504" width="69" height="19" rx="3" fill="#ffffff" opacity="0.92"/>
<text x="2463" y="517" font-size="11" font-weight="400" fill="#5b6472" text-anchor="middle">Replicación</text>
<g data-id="clientes"><rect x="26.5" y="626" width="56" height="56" rx="12" fill="#ffffff" stroke="#e3e6ea"/><svg x="35.5" y="635" width="38" height="38" viewBox="0 0 24 24" color="#3d4652"><path fill="none" stroke="currentColor" stroke-linecap="round" stroke-linejoin="round" stroke-width="2" d="M8 7a4 4 0 1 0 8 0a4 4 0 0 0-8 0M6 21v-2a4 4 0 0 1 4-4h4a4 4 0 0 1 4 4v2"/></svg><text x="54.5" y="705" font-size="13" font-weight="600" fill="#1b1f24" text-anchor="middle">Clientes</text></g>
<g data-id="pasarela"><rect x="3474" y="609" width="56" height="56" rx="12" fill="#ffffff" stroke="#e3e6ea"/><svg x="3483" y="618" width="38" height="38" viewBox="0 0 24 24" color="#3d4652"><path fill="none" stroke="currentColor" stroke-linecap="round" stroke-linejoin="round" stroke-width="2" d="m12 3l8 4.5v9L12 21l-8-4.5v-9zm0 9l8-4.5M12 12v9m0-9L4 7.5"/></svg><text x="3502" y="688" font-size="13" font-weight="600" fill="#1b1f24" text-anchor="middle">Pasarela de pago</text></g>
<g data-id="bedrock"><rect x="3474" y="738" width="56" height="56" rx="12" fill="#ffffff" stroke="#e3e6ea"/><svg x="3483" y="747" width="38" height="38" viewBox="0 0 256 176"><path fill="#181818" d="m147.487 0l70.081 175.78H256L185.919 0zM66.183 106.221l23.98-61.774l23.98 61.774zM70.07 0L0 175.78h39.18l14.33-36.914h73.308l14.328 36.914h39.179L110.255 0z"/></svg><text x="3502" y="817" font-size="13" font-weight="600" fill="#1b1f24" text-anchor="middle">Amazon Bedrock</text><text x="3502" y="831.9" font-size="11" font-weight="400" fill="#5b6472" text-anchor="middle">[Claude]</text></g>
<g data-id="alb"><rect x="1408.5" y="562" width="56" height="56" rx="12" fill="#ffffff" stroke="#e3e6ea"/><svg x="1417.5" y="571" width="38" height="38" viewBox="0 0 256 256"><defs><linearGradient id="SVGusebDeuy1" x1="0%" x2="100%" y1="100%" y2="0%"><stop offset="0%" stop-color="#4d27a8"/><stop offset="100%" stop-color="#a166ff"/></linearGradient></defs><path fill="url(#SVGusebDeuy1)" d="M0 0h256v256H0z"/><path fill="#fff" d="M96 169.6c-22.938 0-41.6-18.662-41.6-41.6S73.062 86.4 96 86.4s41.6 18.662 41.6 41.6s-18.662 41.6-41.6 41.6m96 19.2c0 7.06-5.74 12.8-12.8 12.8s-12.8-5.74-12.8-12.8s5.74-12.8 12.8-12.8s12.8 5.74 12.8 12.8M179.2 54.4c7.06 0 12.8 5.74 12.8 12.8S186.26 80 179.2 80s-12.8-5.74-12.8-12.8s5.74-12.8 12.8-12.8m9.6 60.8c7.06 0 12.8 5.74 12.8 12.8s-5.74 12.8-12.8 12.8S176 135.06 176 128s5.74-12.8 12.8-12.8m-44.963 16h26.051c1.53 9.066 9.418 16 18.912 16c10.589 0 19.2-8.611 19.2-19.2s-8.611-19.2-19.2-19.2c-9.494 0-17.382 6.934-18.912 16h-26.051a47.5 47.5 0 0 0-4.407-17.107l28.397-25.06c3.187 2.356 7.114 3.767 11.373 3.767c10.589 0 19.2-8.611 19.2-19.2S189.789 48 179.2 48S160 56.611 160 67.2c0 4.02 1.245 7.747 3.363 10.835L136.26 101.95C127.693 88.762 112.867 80 96 80c-26.467 0-48 21.533-48 48s21.533 48 48 48c16.867 0 31.693-8.762 40.26-21.949l27.103 23.914A19.1 19.1 0 0 0 160 188.8c0 10.589 8.611 19.2 19.2 19.2s19.2-8.611 19.2-19.2s-8.611-19.2-19.2-19.2c-4.26 0-8.186 1.411-11.373 3.766l-28.397-25.059a47.5 47.5 0 0 0 4.407-17.107"/></svg><text x="1436.5" y="638" font-size="13" font-weight="600" fill="#1b1f24" text-anchor="middle">Application Load</text><text x="1436.5" y="654.9" font-size="13" font-weight="600" fill="#1b1f24" text-anchor="middle">Balancer</text><text x="1436.5" y="669.8" font-size="11" font-weight="400" fill="#5b6472" text-anchor="middle">[ALB]</text></g>
<g data-id="payments-api"><rect x="2025" y="647.5" width="56" height="56" rx="12" fill="#ffffff" stroke="#e3e6ea"/><svg x="2034" y="656.5" width="38" height="38" viewBox="0 0 256 256"><defs><linearGradient id="SVGeyciVcvH" x1="0%" x2="100%" y1="100%" y2="0%"><stop offset="0%" stop-color="#c8511b"/><stop offset="100%" stop-color="#f90"/></linearGradient></defs><path fill="url(#SVGeyciVcvH)" d="M0 0h256v256H0z"/><path fill="#fff" d="m149.894 103.037l-21.852 25.347l23.77 27.725h-8.871L121.6 131.2v25.6h-6.4v-54.4h6.4v22.4l19.78-21.763zm54.906 51.312l-25.6-15.363V102.4c0-1.14-.602-2.192-1.587-2.765L140.8 78.163V47.206l64 37.821zm4.829-73.904l-70.4-41.6a3.21 3.21 0 0 0-3.216-.026A3.21 3.21 0 0 0 134.4 41.6V80c0 1.136.605 2.189 1.587 2.765l36.813 21.472V140.8c0 1.123.592 2.166 1.555 2.742l32 19.2a3.19 3.19 0 0 0 3.223.042A3.2 3.2 0 0 0 211.2 160V83.2c0-1.133-.595-2.18-1.571-2.755m-80.205 133.517L54.4 174.077v-89.05l64-37.82v31.036L84.682 99.7a3.2 3.2 0 0 0-1.482 2.7v54.4c0 1.194.666 2.288 1.722 2.838l43.05 22.4c.924.48 2.025.484 2.946.004l41.767-21.581l25.702 15.424zm77.024-40.708l-32-19.2a3.2 3.2 0 0 0-3.117-.096l-41.875 21.636L89.6 154.858v-50.701L123.318 82.7A3.2 3.2 0 0 0 124.8 80V41.6a3.2 3.2 0 0 0-1.613-2.782a3.21 3.21 0 0 0-3.216.026l-70.4 41.6A3.2 3.2 0 0 0 48 83.2V176c0 1.18.653 2.269 1.696 2.826l78.253 41.6a3.2 3.2 0 0 0 3.05-.026l75.35-41.6a3.2 3.2 0 0 0 1.652-2.742a3.21 3.21 0 0 0-1.553-2.804"/></svg><text x="2053" y="723.5" font-size="13" font-weight="600" fill="#1b1f24" text-anchor="middle">Payments API</text><text x="2053" y="738.4" font-size="11" font-weight="400" fill="#5b6472" text-anchor="middle">[Spring Boot on EKS]</text></g>
<g data-id="aurora-writer"><rect x="2348.5" y="647.5" width="56" height="56" rx="12" fill="#ffffff" stroke="#e3e6ea"/><svg x="2357.5" y="656.5" width="38" height="38" viewBox="0 0 256 256"><defs><linearGradient id="SVGte2wIbLN" x1="0%" x2="100%" y1="100%" y2="0%"><stop offset="0%" stop-color="#2e27ad"/><stop offset="100%" stop-color="#527fff"/></linearGradient></defs><path fill="url(#SVGte2wIbLN)" d="M0 0h256v256H0z"/><path fill="#fff" d="M144.292 57.744h-9.626v-6.457h9.626V41.6h6.417v9.687h9.625v6.457h-9.625v9.687h-6.417zm38.502 35.518h-9.625v-6.458h9.625v-9.686h6.418v9.686h9.625v6.458h-9.625v9.687h-6.418zm-16.71 102.046c-6.128-15.57-20.272-29.803-35.75-35.973c15.478-6.167 29.622-20.4 35.75-35.973c6.129 15.573 20.272 29.806 35.747 35.973c-15.475 6.17-29.618 20.403-35.747 35.973m51.507-39.202c-22.569 0-48.298-25.893-48.298-48.605a3.22 3.22 0 0 0-3.209-3.228a3.22 3.22 0 0 0-3.208 3.228c0 22.712-25.733 48.605-48.302 48.605c-1.771 0-3.209 1.446-3.209 3.229a3.22 3.22 0 0 0 3.209 3.229c22.569 0 48.302 25.892 48.302 48.607a3.22 3.22 0 0 0 3.208 3.229a3.22 3.22 0 0 0 3.209-3.229c0-22.715 25.73-48.607 48.298-48.607a3.22 3.22 0 0 0 3.209-3.23a3.22 3.22 0 0 0-3.209-3.228M41.617 92.49c9.344 6.84 27.498 10.459 44.92 10.459s35.577-3.62 44.92-10.459v30.927c-4.623 6.186-21.626 12.282-44.278 12.282c-26.076 0-45.562-8.201-45.562-15.534zm44.92-25.059c27.831 0 44.92 8.463 44.92 14.53s-17.089 14.53-44.92 14.53s-44.92-8.463-44.92-14.53s17.089-14.53 44.92-14.53m44.92 121.183c0 7.443-19.216 15.77-44.936 15.77c-25.7 0-44.904-8.327-44.904-15.77v-20.632c9.459 7.22 27.976 11.042 45.745 11.042c12.356 0 24.305-1.756 33.632-4.946l-2.06-6.116c-8.682 2.968-19.896 4.605-31.572 4.605c-26.182 0-45.745-8.202-45.745-15.535v-25.898c9.433 7.206 27.87 11.023 45.562 11.023c18.956 0 35.214-3.93 44.278-10.152v9.69h6.417V81.961c0-13.632-26.448-20.988-51.337-20.988c-23.875 0-49.123 6.787-51.138 19.374H35.2v108.267c0 14.436 26.442 22.228 51.321 22.228c24.895 0 51.353-7.792 51.353-22.228v-11.401h-6.417z"/></svg><text x="2376.5" y="723.5" font-size="13" font-weight="600" fill="#1b1f24" text-anchor="middle">Aurora (escritura)</text><text x="2376.5" y="738.4" font-size="11" font-weight="400" fill="#5b6472" text-anchor="middle">[Aurora PostgreSQL]</text></g>
<g data-id="nat-b"><rect x="1408" y="318" width="56" height="56" rx="12" fill="#ffffff" stroke="#e3e6ea"/><svg x="1417" y="327" width="38" height="38" viewBox="0 0 256 256"><defs><linearGradient id="SVGusebDeuy2" x1="0%" x2="100%" y1="100%" y2="0%"><stop offset="0%" stop-color="#4d27a8"/><stop offset="100%" stop-color="#a166ff"/></linearGradient></defs><path fill="url(#SVGusebDeuy2)" d="M0 0h256v256H0z"/><path fill="#fff" d="m195.2 132.39l-17.6-7.04v63.843c5.14-.512 9.283-2.202 12.227-5.19c5.44-5.53 5.376-13.636 5.373-13.716zm-24 56.844V125.35l-17.6 7.04v37.834c.022.662.749 17.142 17.6 19.011m30.4-19.011c.01.362.17 10.71-7.152 18.208c-4.787 4.906-11.536 7.392-20.048 7.392c-21.034 0-26.992-16.698-27.2-25.523v-40.077c0-1.309.797-2.486 2.013-2.973l24-9.6a3.2 3.2 0 0 1 2.374 0l24 9.6a3.2 3.2 0 0 1 2.013 2.973zm9.603-6.291l-.003-42.743l-36.8-14.72l-36.8 14.72v42.634c-.006.291-.432 19.93 11.309 32.013c6.182 6.361 14.758 9.587 25.491 9.587c10.806 0 19.424-3.248 25.613-9.651c11.725-12.135 11.197-31.645 11.19-31.84m-6.589 36.285c-7.44 7.702-17.606 11.606-30.214 11.606c-12.547 0-22.678-3.891-30.112-11.565c-13.629-14.057-13.117-35.625-13.088-36.534v-44.701c0-1.309.797-2.486 2.013-2.973l40-16a3.2 3.2 0 0 1 2.374 0l40 16a3.2 3.2 0 0 1 2.013 2.973v44.8c.029.8.605 22.33-12.986 36.394M73.776 151.023H121.6v6.4H73.776c-19.45 0-34.298-12.966-35.3-30.832c-.07-.73-.076-1.58-.076-2.432c0-21.98 15.37-30.074 24.333-32.922a50 50 0 0 1-.096-3.113c0-17.45 12.448-35.706 28.95-42.464c19.38-7.936 39.811-4.093 54.637 10.262c4.995 4.867 8.803 10.064 11.558 15.789c3.86-3.312 8.519-5.091 13.51-5.091c10.577 0 21.764 8.3 23.687 24.201c6.986 1.76 15.754 5.498 21.943 13.434l-5.044 3.936c-5.702-7.315-14.307-10.362-20.518-11.635a3.19 3.19 0 0 1-2.554-2.944c-.835-14.147-9.664-20.592-17.513-20.592c-4.679 0-8.826 2.208-11.997 6.384a3.16 3.16 0 0 1-3.024 1.232a3.2 3.2 0 0 1-2.528-2.064c-2.454-6.688-6.371-12.595-11.978-18.058c-12.94-12.525-30.803-15.869-47.753-8.931c-14.237 5.83-24.976 21.54-24.976 36.54c0 1.732.099 3.444.3 5.086a3.204 3.204 0 0 1-2.409 3.49c-8.262 2.046-22.128 8.337-22.128 27.46c0 .646-.006 1.296.058 1.946c.812 14.49 12.972 24.918 28.918 24.918"/></svg><text x="1436" y="394" font-size="13" font-weight="600" fill="#1b1f24" text-anchor="middle">NAT Gateway</text></g>
<g data-id="orders-api"><rect x="1866.5" y="323.5" width="56" height="56" rx="12" fill="#ffffff" stroke="#e3e6ea"/><svg x="1875.5" y="332.5" width="38" height="38" viewBox="0 0 256 256"><defs><linearGradient id="SVGeyciVcvH" x1="0%" x2="100%" y1="100%" y2="0%"><stop offset="0%" stop-color="#c8511b"/><stop offset="100%" stop-color="#f90"/></linearGradient></defs><path fill="url(#SVGeyciVcvH)" d="M0 0h256v256H0z"/><path fill="#fff" d="m149.894 103.037l-21.852 25.347l23.77 27.725h-8.871L121.6 131.2v25.6h-6.4v-54.4h6.4v22.4l19.78-21.763zm54.906 51.312l-25.6-15.363V102.4c0-1.14-.602-2.192-1.587-2.765L140.8 78.163V47.206l64 37.821zm4.829-73.904l-70.4-41.6a3.21 3.21 0 0 0-3.216-.026A3.21 3.21 0 0 0 134.4 41.6V80c0 1.136.605 2.189 1.587 2.765l36.813 21.472V140.8c0 1.123.592 2.166 1.555 2.742l32 19.2a3.19 3.19 0 0 0 3.223.042A3.2 3.2 0 0 0 211.2 160V83.2c0-1.133-.595-2.18-1.571-2.755m-80.205 133.517L54.4 174.077v-89.05l64-37.82v31.036L84.682 99.7a3.2 3.2 0 0 0-1.482 2.7v54.4c0 1.194.666 2.288 1.722 2.838l43.05 22.4c.924.48 2.025.484 2.946.004l41.767-21.581l25.702 15.424zm77.024-40.708l-32-19.2a3.2 3.2 0 0 0-3.117-.096l-41.875 21.636L89.6 154.858v-50.701L123.318 82.7A3.2 3.2 0 0 0 124.8 80V41.6a3.2 3.2 0 0 0-1.613-2.782a3.21 3.21 0 0 0-3.216.026l-70.4 41.6A3.2 3.2 0 0 0 48 83.2V176c0 1.18.653 2.269 1.696 2.826l78.253 41.6a3.2 3.2 0 0 0 3.05-.026l75.35-41.6a3.2 3.2 0 0 0 1.652-2.742a3.21 3.21 0 0 0-1.553-2.804"/></svg><text x="1894.5" y="399.5" font-size="13" font-weight="600" fill="#1b1f24" text-anchor="middle">Orders API</text><text x="1894.5" y="414.4" font-size="11" font-weight="400" fill="#5b6472" text-anchor="middle">[Node.js on EKS]</text></g>
<g data-id="aurora-reader"><rect x="2119.5" y="323.5" width="56" height="56" rx="12" fill="#ffffff" stroke="#e3e6ea"/><svg x="2128.5" y="332.5" width="38" height="38" viewBox="0 0 256 256"><defs><linearGradient id="SVGte2wIbLN" x1="0%" x2="100%" y1="100%" y2="0%"><stop offset="0%" stop-color="#2e27ad"/><stop offset="100%" stop-color="#527fff"/></linearGradient></defs><path fill="url(#SVGte2wIbLN)" d="M0 0h256v256H0z"/><path fill="#fff" d="M144.292 57.744h-9.626v-6.457h9.626V41.6h6.417v9.687h9.625v6.457h-9.625v9.687h-6.417zm38.502 35.518h-9.625v-6.458h9.625v-9.686h6.418v9.686h9.625v6.458h-9.625v9.687h-6.418zm-16.71 102.046c-6.128-15.57-20.272-29.803-35.75-35.973c15.478-6.167 29.622-20.4 35.75-35.973c6.129 15.573 20.272 29.806 35.747 35.973c-15.475 6.17-29.618 20.403-35.747 35.973m51.507-39.202c-22.569 0-48.298-25.893-48.298-48.605a3.22 3.22 0 0 0-3.209-3.228a3.22 3.22 0 0 0-3.208 3.228c0 22.712-25.733 48.605-48.302 48.605c-1.771 0-3.209 1.446-3.209 3.229a3.22 3.22 0 0 0 3.209 3.229c22.569 0 48.302 25.892 48.302 48.607a3.22 3.22 0 0 0 3.208 3.229a3.22 3.22 0 0 0 3.209-3.229c0-22.715 25.73-48.607 48.298-48.607a3.22 3.22 0 0 0 3.209-3.23a3.22 3.22 0 0 0-3.209-3.228M41.617 92.49c9.344 6.84 27.498 10.459 44.92 10.459s35.577-3.62 44.92-10.459v30.927c-4.623 6.186-21.626 12.282-44.278 12.282c-26.076 0-45.562-8.201-45.562-15.534zm44.92-25.059c27.831 0 44.92 8.463 44.92 14.53s-17.089 14.53-44.92 14.53s-44.92-8.463-44.92-14.53s17.089-14.53 44.92-14.53m44.92 121.183c0 7.443-19.216 15.77-44.936 15.77c-25.7 0-44.904-8.327-44.904-15.77v-20.632c9.459 7.22 27.976 11.042 45.745 11.042c12.356 0 24.305-1.756 33.632-4.946l-2.06-6.116c-8.682 2.968-19.896 4.605-31.572 4.605c-26.182 0-45.745-8.202-45.745-15.535v-25.898c9.433 7.206 27.87 11.023 45.562 11.023c18.956 0 35.214-3.93 44.278-10.152v9.69h6.417V81.961c0-13.632-26.448-20.988-51.337-20.988c-23.875 0-49.123 6.787-51.138 19.374H35.2v108.267c0 14.436 26.442 22.228 51.321 22.228c24.895 0 51.353-7.792 51.353-22.228v-11.401h-6.417z"/></svg><text x="2147.5" y="399.5" font-size="13" font-weight="600" fill="#1b1f24" text-anchor="middle">Aurora (lectura)</text><text x="2147.5" y="414.4" font-size="11" font-weight="400" fill="#5b6472" text-anchor="middle">[Aurora PostgreSQL]</text></g>
<g data-id="cola-pagos"><rect x="2716" y="658.5" width="56" height="56" rx="12" fill="#ffffff" stroke="#e3e6ea"/><svg x="2725" y="667.5" width="38" height="38" viewBox="0 0 256 256"><defs><linearGradient id="SVGyDrnJbhE" x1="0%" x2="100%" y1="100%" y2="0%"><stop offset="0%" stop-color="#b0084d"/><stop offset="100%" stop-color="#ff4f8b"/></linearGradient></defs><path fill="url(#SVGyDrnJbhE)" d="M0 0h256v256H0z"/><path fill="#fff" d="m91.894 139.8l9.607-9.49a3.18 3.18 0 0 0 .944-2.246a3.17 3.17 0 0 0-.932-2.253l-9.606-9.599l-4.54 4.486l4.12 4.12H76.83v6.364h14.71l-4.16 4.107zm73.315.29l12.808-9.551a3.19 3.19 0 0 0 1.278-2.542a3.19 3.19 0 0 0-1.281-2.549l-12.808-9.538l-3.843 5.09l5.123 3.818h-12.808v6.364h12.805L161.36 135zM112.666 128c0 6.755-1.169 13.124-3.352 18.666c5.76-2.214 12.257-3.321 18.748-3.321c6.49 0 12.987 1.107 18.744 3.321c-2.18-5.542-3.349-11.911-3.349-18.666s1.169-13.12 3.35-18.666c-11.518 4.425-25.972 4.425-37.493 0c2.183 5.545 3.352 11.911 3.352 18.666M96.98 158.884a3.163 3.163 0 0 1 0-4.499c5.812-5.775 9.283-15.64 9.283-26.385c0-10.744-3.471-20.61-9.283-26.385a3.163 3.163 0 0 1 0-4.499a3.213 3.213 0 0 1 4.528 0c12.408 12.329 40.701 12.329 53.11 0a3.213 3.213 0 0 1 4.527 0a3.163 3.163 0 0 1 0 4.499c-5.812 5.775-9.283 15.64-9.283 26.385c0 10.744 3.471 20.61 9.283 26.385a3.163 3.163 0 0 1 0 4.499a3.2 3.2 0 0 1-2.264.932c-.82 0-1.64-.312-2.264-.932c-12.408-12.329-40.701-12.329-53.109 0a3.213 3.213 0 0 1-4.528 0m114.224-30.868c0-2.965-1.162-5.752-3.272-7.85a11.16 11.16 0 0 0-7.9-3.244c-2.86 0-5.722 1.078-7.9 3.245c-4.357 4.327-4.357 11.368 0 15.698c4.355 4.327 11.438 4.33 15.8 0a11 11 0 0 0 3.272-7.85m1.255 12.348c-3.426 3.404-7.925 5.106-12.427 5.106s-9-1.702-12.427-5.106c-6.856-6.809-6.856-17.887 0-24.696c6.856-6.815 18.005-6.809 24.854 0c6.856 6.809 6.856 17.887 0 24.696M67.136 128.089c0-2.965-1.162-5.752-3.272-7.849a11.13 11.13 0 0 0-7.9-3.252a11.15 11.15 0 0 0-7.9 3.252a11 11 0 0 0-3.269 7.85a11 11 0 0 0 3.27 7.848c4.223 4.19 11.578 4.19 15.799 0a11 11 0 0 0 3.272-7.849m1.255 12.348c-3.426 3.404-7.925 5.106-12.427 5.106c-4.499 0-8.998-1.702-12.427-5.106c-6.85-6.809-6.85-17.887 0-24.696c6.856-6.808 18.002-6.808 24.854 0c6.853 6.809 6.853 17.887 0 24.696m107.276 35.102c-12.783 12.705-29.783 19.698-47.862 19.698c-18.085 0-35.081-6.993-47.864-19.698c-8.767-8.708-13.593-19.115-16.097-26.308l-6.052 2.08c2.725 7.827 7.993 19.163 17.621 28.727c13.993 13.907 32.597 21.562 52.392 21.562c19.792 0 38.396-7.655 52.39-21.562c8.085-8.027 14.524-18.233 18.139-28.736l-6.058-2.062c-3.305 9.602-9.203 18.944-16.61 26.3M63.84 106.772l-6.045-2.087c3.874-11.084 10.137-21.291 17.637-28.74C89.419 62.053 108.017 54.4 127.805 54.4c19.79 0 38.387 7.652 52.37 21.546c7.893 7.842 14.512 18.316 18.153 28.74l-6.046 2.086c-3.34-9.544-9.401-19.14-16.635-26.327c-12.773-12.695-29.766-19.682-47.842-19.682c-18.078 0-35.068 6.987-47.845 19.682c-6.826 6.786-12.552 16.137-16.119 26.327"/></svg><text x="2744" y="734.5" font-size="13" font-weight="600" fill="#1b1f24" text-anchor="middle">Cola de pagos</text><text x="2744" y="749.4" font-size="11" font-weight="400" fill="#5b6472" text-anchor="middle">[SQS]</text></g>
<g data-id="notificador"><rect x="2907.5" y="658.5" width="56" height="56" rx="12" fill="#ffffff" stroke="#e3e6ea"/><svg x="2916.5" y="667.5" width="38" height="38" viewBox="0 0 256 256"><defs><linearGradient id="SVGeyciVcvH1" x1="0%" x2="100%" y1="100%" y2="0%"><stop offset="0%" stop-color="#c8511b"/><stop offset="100%" stop-color="#f90"/></linearGradient></defs><path fill="url(#SVGeyciVcvH1)" d="M0 0h256v256H0z"/><path fill="#fff" d="M89.624 211.2H49.89l43.945-91.853l19.912 40.992zm7.079-100.63a3.22 3.22 0 0 0-2.887-1.805h-.01a3.2 3.2 0 0 0-2.886 1.82L41.913 213.022a3.203 3.203 0 0 0 2.893 4.58l46.848-.001a3.21 3.21 0 0 0 2.9-1.83l25.65-54.08a3.18 3.18 0 0 0-.016-2.762zM207.985 211.2h-39.477L105.174 78.624a3.21 3.21 0 0 0-2.897-1.824h-25.83l.03-32h50.626l63.042 132.573a3.21 3.21 0 0 0 2.897 1.827h14.943zm3.208-38.4h-16.121L132.03 40.227a3.21 3.21 0 0 0-2.9-1.827H73.273a3.206 3.206 0 0 0-3.208 3.197l-.035 38.4c0 .851.333 1.664.94 2.265c.6.602 1.414.938 2.267.938h27.017l63.337 132.576a3.2 3.2 0 0 0 2.893 1.824h44.709a3.203 3.203 0 0 0 3.207-3.2V176c0-1.766-1.434-3.2-3.207-3.2"/></svg><text x="2935.5" y="734.5" font-size="13" font-weight="600" fill="#1b1f24" text-anchor="middle">Notificador</text><text x="2935.5" y="749.4" font-size="11" font-weight="400" fill="#5b6472" text-anchor="middle">[Lambda]</text></g>
<g data-id="recibos"><rect x="3101" y="658.5" width="56" height="56" rx="12" fill="#ffffff" stroke="#e3e6ea"/><svg x="3110" y="667.5" width="38" height="38" viewBox="0 0 256 256"><defs><linearGradient id="SVG7R6tZwZW" x1="0%" x2="100%" y1="100%" y2="0%"><stop offset="0%" stop-color="#1b660f"/><stop offset="100%" stop-color="#6cae3e"/></linearGradient></defs><path fill="url(#SVG7R6tZwZW)" d="M0 0h256v256H0z"/><path fill="#fff" d="m194.675 137.256l1.229-8.652c11.33 6.787 11.478 9.59 11.475 9.667c-.02.016-1.952 1.629-12.704-1.015m-6.218-1.728c-19.584-5.926-46.857-18.438-57.894-23.654c0-.045.013-.086.013-.131c0-4.24-3.45-7.69-7.693-7.69c-4.237 0-7.687 3.45-7.687 7.69s3.45 7.69 7.687 7.69c1.862 0 3.552-.695 4.886-1.8c12.986 6.148 40.048 18.478 59.776 24.302l-7.801 55.059q-.033.225-.032.451c0 4.848-21.463 13.754-56.532 13.754c-35.44 0-57.13-8.906-57.13-13.754q0-.22-.028-.435l-16.3-119.062c14.108 9.712 44.454 14.85 73.478 14.85c28.979 0 59.273-5.12 73.41-14.802zM48 65.528c.23-4.21 24.428-20.73 75.2-20.73c50.764 0 74.966 16.516 75.2 20.73v1.437c-2.784 9.443-34.144 19.434-75.2 19.434c-41.127 0-72.503-10.023-75.2-19.479zm156.8.07c0-11.087-31.79-27.2-81.6-27.2c-49.812 0-81.6 16.113-81.6 27.2l.3 2.414l17.754 129.676c.426 14.503 39.1 19.91 63.526 19.91c30.31 0 62.512-6.969 62.928-19.9l7.668-54.07c4.265 1.02 7.776 1.542 10.595 1.542c3.785 0 6.345-.925 7.897-2.774c1.274-1.517 1.76-3.354 1.396-5.31c-.83-4.428-6.087-9.202-16.794-15.311l7.603-53.639z"/></svg><text x="3129" y="734.5" font-size="13" font-weight="600" fill="#1b1f24" text-anchor="middle">Recibos</text><text x="3129" y="749.4" font-size="11" font-weight="400" fill="#5b6472" text-anchor="middle">[S3]</text></g>
<g data-id="secretos"><rect x="2716" y="544.5" width="56" height="56" rx="12" fill="#ffffff" stroke="#e3e6ea"/><svg x="2725" y="553.5" width="38" height="38" viewBox="0 0 256 256"><defs><linearGradient id="SVGYPnorcPn" x1="0%" x2="100%" y1="100%" y2="0%"><stop offset="0%" stop-color="#bd0816"/><stop offset="100%" stop-color="#ff5252"/></linearGradient></defs><path fill="url(#SVGYPnorcPn)" d="M0 0h256v256H0z"/><path fill="#fff" d="M124.032 138.752A3.973 3.973 0 0 0 128 142.72a3.97 3.97 0 0 0 3.968-3.968a3.97 3.97 0 0 0-3.968-3.968a3.973 3.973 0 0 0-3.968 3.968m-6.4 0c0-5.718 4.65-10.368 10.368-10.368s10.368 4.65 10.368 10.368c0 4.595-3.02 8.454-7.168 9.811v8.237h-6.4v-8.237c-4.147-1.357-7.168-5.216-7.168-9.811M156.8 121.6H99.2v41.6h57.6v-9.6h-9.6v-6.4h9.6v-9.6h-9.6v-6.4h9.6zm-48-6.4h38.397l.003-16c.003-8.371-9.142-15.994-19.187-16h-.01c-4.893 0-9.833 1.837-13.561 5.04c-3.584 3.078-5.642 7.075-5.642 10.963zm44.8-15.997l-.003 15.997H160a3.2 3.2 0 0 1 3.2 3.2v48a3.2 3.2 0 0 1-3.2 3.2H96a3.2 3.2 0 0 1-3.2-3.2v-48a3.2 3.2 0 0 1 3.2-3.2h6.4v-16c.003-5.754 2.87-11.517 7.869-15.814c4.873-4.186 11.334-6.586 17.734-6.586h.01c13.635.006 25.59 10.474 25.587 22.403m-92.138 76.954l5.188-3.75c-8.752-12.097-13.59-26.289-14.183-41.207H60.8v-6.4h-8.323c.637-14.829 5.469-28.938 14.173-40.966l-5.188-3.754c-9.497 13.13-14.745 28.534-15.385 44.72H38.4v6.4h7.667c.595 16.275 5.85 31.763 15.395 44.957m110.82 13.309c-12.061 8.73-26.208 13.561-41.082 14.179V195.2h-6.4v8.445c-14.874-.615-29.024-5.447-41.091-14.18l-3.747 5.185c13.158 9.526 28.608 14.774 44.838 15.395v7.555h6.4v-7.555c16.23-.621 31.674-5.869 44.832-15.395zM83.709 66.77c12.067-8.73 26.217-13.561 41.091-14.176V60.8h6.4v-8.205c14.874.615 29.02 5.447 41.082 14.176l3.75-5.184c-13.158-9.523-28.602-14.771-44.832-15.392V38.4h-6.4v7.795c-16.23.618-31.68 5.866-44.838 15.392zm126.208 58.03c-.64-16.186-5.888-31.59-15.389-44.72l-5.187 3.754c8.707 12.028 13.539 26.137 14.176 40.966H195.2v6.4h8.326c-.595 14.918-5.43 29.11-14.185 41.206l5.187 3.75c9.549-13.193 14.8-28.68 15.398-44.956h7.674v-6.4zm-29.482-44.595l25.088-25.088l-4.525-4.525L175.91 75.68zM75.558 176.032L50.47 201.12l4.525 4.525l25.088-25.088zM91.731 87.21L44.24 39.722l-4.525 4.524l47.491 47.488zm81.687 81.686l42.857 42.858l-4.525 4.524l-42.857-42.857z"/></svg><text x="2744" y="620.5" font-size="13" font-weight="600" fill="#1b1f24" text-anchor="middle">Secrets Manager</text></g>
<g data-id="route53"><rect x="436" y="659.5" width="56" height="56" rx="12" fill="#ffffff" stroke="#e3e6ea"/><svg x="445" y="668.5" width="38" height="38" viewBox="0 0 256 256"><defs><linearGradient id="SVGusebDeuy3" x1="0%" x2="100%" y1="100%" y2="0%"><stop offset="0%" stop-color="#4d27a8"/><stop offset="100%" stop-color="#a166ff"/></linearGradient></defs><path fill="url(#SVGusebDeuy3)" d="M0 0h256v256H0z"/><path fill="#fff" d="M155.814 130.174q3.549 3.279 3.55 8.794q0 6.003-4.318 9.585q-4.32 3.586-11.603 3.585q-5.756-.002-11.392-2.452v-4.901q6.676 2.207 11.392 2.205q4.655 0 7.165-2.08q2.51-2.085 2.509-5.942c0-4.942-3.12-7.414-9.37-7.414q-2.937.001-5.817.304v-4.04l12.864-14.03h-18.128v-5.023h24.924v4.84l-12.617 13.355c.208-.041.406-.06.614-.06h.611q6.066 0 9.616 3.274m-35.577-1.069q3.73 3.492 3.731 9.614c0 4.004-1.446 7.24-4.349 9.712c-2.899 2.471-6.713 3.707-11.45 3.707q-6.241-.002-11.695-2.452v-4.901q6.796 2.207 11.635 2.205c3.104 0 5.481-.7 7.133-2.112c1.654-1.409 2.483-3.438 2.483-6.095q-.001-4.35-2.33-6.31q-2.328-1.96-7.593-1.962c-2.532 0-5.693.208-9.492.614v-4.043l1.165-18.317h22.352v5.022h-17.21l-.796 12.437q3.368-.61 6.06-.611q6.616-.001 10.356 3.492m46.025 44.904c-15.532 2.791-29.136 9.117-38.262 14.27c-9.13-5.153-22.733-11.479-38.262-14.27c-4.372-.784-26.157-5.333-26.157-17.927c0-5.836 2.09-9.706 6.102-16.618c4.794-8.265 10.759-18.554 10.759-33.366c0-10.586-2.775-20.738-8.253-30.21c.643-.794 1.299-1.597 1.958-2.407c8.115 4.056 16.563 6.11 25.152 6.11c10.496 0 20.141-2.755 28.701-8.194c8.557 5.439 18.202 8.195 28.698 8.195c8.588 0 17.04-2.055 25.155-6.111c.656.81 1.312 1.613 1.955 2.407c-5.478 9.472-8.253 19.624-8.253 30.21c0 14.812 5.965 25.1 10.768 33.38c4.003 6.898 6.093 10.768 6.093 16.604c0 12.594-21.786 17.143-26.154 17.927m15.693-67.911c0-10.106 2.851-19.793 8.467-28.792a3.19 3.19 0 0 0-.233-3.72a1524 1524 0 0 1-5.015-6.172a3.2 3.2 0 0 0-4.035-.79c-7.881 4.357-16.102 6.565-24.441 6.565c-10.061 0-18.852-2.705-26.877-8.265a3.2 3.2 0 0 0-3.645 0c-8.026 5.56-16.816 8.265-26.877 8.265c-8.339 0-16.56-2.208-24.441-6.565a3.2 3.2 0 0 0-4.036.79a1464 1464 0 0 1-5.014 6.172a3.19 3.19 0 0 0-.234 3.72c5.62 8.999 8.468 18.686 8.468 28.792c0 13.09-5.488 22.55-9.898 30.162c-4.32 7.433-6.963 12.37-6.963 19.822c0 17.245 24.051 22.908 31.424 24.23c15.552 2.795 29.133 9.386 37.785 14.422a3.19 3.19 0 0 0 3.22 0c8.652-5.036 22.23-11.627 37.782-14.422c7.373-1.322 31.424-6.985 31.424-24.23c0-7.452-2.643-12.389-6.963-19.832c-4.41-7.603-9.898-17.062-9.898-30.152m-12.374 86.404c-19.62 3.528-36.067 14.08-41.581 17.943c-5.517-3.864-21.965-14.415-41.584-17.943c-38.618-6.937-41.616-29.63-41.616-36.42c0-11.17 4.387-18.727 8.63-26.042c4.045-6.97 8.228-14.178 8.228-23.942c0-15.424-8.906-26.317-13.3-30.751c4.621-5.621 16.295-19.854 22.052-27.271C79.133 56.309 89.274 60.8 99.3 60.8c11.129 0 20.332-4.53 28.7-14.195c8.365 9.665 17.568 14.195 28.698 14.195c10.025 0 20.166-4.492 28.892-12.725c5.757 7.417 17.428 21.65 22.048 27.271c-4.393 4.434-13.299 15.327-13.299 30.751c0 9.764 4.186 16.973 8.227 23.942c4.247 7.315 8.634 14.873 8.634 26.042c0 6.79-3.002 29.483-41.62 36.42m38.522-65.673c-3.952-6.812-7.363-12.693-7.363-20.731c0-16.922 13.171-27.867 13.3-27.97a3.23 3.23 0 0 0 1.174-2.17a3.2 3.2 0 0 0-.717-2.359c-.214-.256-21.19-25.687-25.997-32.275a3.2 3.2 0 0 0-2.39-1.309a3.15 3.15 0 0 0-2.531 1.008c-8.064 8.625-17.607 13.375-26.88 13.375c-10.253 0-18.317-4.568-26.157-14.812c-1.213-1.581-3.869-1.581-5.082 0c-7.843 10.244-15.907 14.812-26.16 14.812c-9.273 0-18.816-4.75-26.88-13.375c-.653-.697-1.58-1.094-2.531-1.008a3.2 3.2 0 0 0-2.39 1.31C62.69 47.911 41.715 73.342 41.5 73.598a3.2 3.2 0 0 0-.71 2.356c.083.849.502 1.63 1.161 2.167c.134.11 13.306 11.054 13.306 27.976c0 8.038-3.412 13.919-7.364 20.731c-4.45 7.67-9.494 16.362-9.494 29.253c0 21.477 17.526 37.448 46.886 42.724c22.103 3.972 40.583 17.99 40.765 18.135a3.2 3.2 0 0 0 3.898-.004c.185-.14 18.601-14.15 40.761-18.131c29.36-5.276 46.89-21.247 46.89-42.724c0-12.891-5.046-21.583-9.498-29.253"/></svg><text x="464" y="735.5" font-size="13" font-weight="600" fill="#1b1f24" text-anchor="middle">Route 53</text><text x="464" y="750.4" font-size="11" font-weight="400" fill="#5b6472" text-anchor="middle">[DNS]</text></g>
<g data-id="cloudfront"><rect x="648.5" y="562" width="56" height="56" rx="12" fill="#ffffff" stroke="#e3e6ea"/><svg x="657.5" y="571" width="38" height="38" viewBox="0 0 256 256"><defs><linearGradient id="SVGusebDeuy" x1="0%" x2="100%" y1="100%" y2="0%"><stop offset="0%" stop-color="#4d27a8"/><stop offset="100%" stop-color="#a166ff"/></linearGradient></defs><path fill="url(#SVGusebDeuy)" d="M0 0h256v256H0z"/><path fill="#fff" d="M176.39 166.794c0-5.293-4.307-9.6-9.6-9.6s-9.6 4.307-9.6 9.6s4.308 9.6 9.6 9.6c5.293 0 9.6-4.308 9.6-9.6m6.4 0c0 8.822-7.177 16-16 16c-8.822 0-16-7.178-16-16c0-8.823 7.178-16 16-16c8.823 0 16 7.177 16 16m-85.536-46.18c0-5.292-4.307-9.6-9.6-9.6c-5.296 0-9.6 4.308-9.6 9.6c0 5.293 4.304 9.6 9.6 9.6c5.293 0 9.6-4.307 9.6-9.6m6.4 0c0 8.823-7.18 16-16 16c-8.822 0-16-7.177-16-16c0-8.822 7.178-16 16-16c8.82 0 16 7.178 16 16m23.482-50.192c0 5.293 4.307 9.6 9.6 9.6c5.296 0 9.6-4.307 9.6-9.6c0-5.296-4.304-9.6-9.6-9.6c-5.293 0-9.6 4.304-9.6 9.6m-6.4 0c0-8.822 7.18-16 16-16c8.822 0 16 7.178 16 16c0 8.823-7.178 16-16 16c-8.82 0-16-7.177-16-16M211.2 128c0-29.674-15.91-57.126-41.562-71.971c-4.598.928-9.046 2.198-14.595 4.205l-2.176-6.02a131 131 0 0 1 7.984-2.61A83 83 0 0 0 128 44.8c-5.405 0-10.723.56-15.92 1.574c3.763 2.202 7.1 4.397 10.342 6.855l-3.868 5.097c-4.57-3.462-9.306-6.396-15.524-9.654c-31.42 9.882-54.05 37.594-57.644 70.138c6.588-1.335 12.915-2.061 19.939-2.234l.157 6.397c-7.36.182-13.684.963-20.596 2.483c-.028.848-.086 1.706-.086 2.544c0 27.706 13.706 53.235 36.246 68.63c-4.01-11.939-6.006-23.222-6.006-34.243c0-6.285 1.082-11.446 2.224-16.909c.266-1.264.534-2.55.797-3.884l6.281 1.238c-.268 1.357-.544 2.672-.812 3.962c-1.12 5.35-2.09 9.97-2.09 15.593c0 12.506 2.746 25.437 8.333 39.479c11.9 6.179 24.752 9.334 38.227 9.334c8.82 0 17.427-1.408 25.638-4.115c3.223-6.359 5.613-12.359 7.61-19.248l6.147 1.782a114 114 0 0 1-5.126 14.147c5.165-2.323 10.051-5.196 14.637-8.55c-1.104-2.707-2.288-5.398-3.597-8.02l5.725-2.863c1.113 2.227 2.134 4.505 3.11 6.797C200.656 175.28 211.2 152.512 211.2 128m6.4 0c0 27.926-12.691 53.757-34.813 70.877c-5.478 4.256-11.42 7.789-17.702 10.633c-2.666 1.21-5.38 2.33-8.17 3.27c-9.216 3.198-18.953 4.82-28.915 4.82c-14.72 0-29.338-3.667-42.278-10.605C56.534 191.38 38.4 161.11 38.4 128c0-2.195.058-3.866.189-5.411c2.179-37.389 27.83-69.75 63.814-80.458C110.598 39.658 119.216 38.4 128 38.4c15.386 0 30.525 3.962 43.789 11.453C200.042 65.68 217.6 95.629 217.6 128m-98.195-46.518l-4.205-4.823c-7.174 6.26-12.755 12.906-19.274 22.944l5.37 3.485c6.17-9.507 11.418-15.766 18.109-21.606m-9.725 41.484l-2.08 6.052c14.698 5.046 27.52 13.097 40.349 25.337l4.419-4.63c-13.523-12.9-27.088-21.402-42.688-26.759m42.787-37.628c12.007 18.31 18.768 38.41 20.093 59.744l-6.387.396c-1.258-20.21-7.667-39.264-19.053-56.63z"/></svg><text x="676.5" y="638" font-size="13" font-weight="600" fill="#1b1f24" text-anchor="middle">CloudFront</text><text x="676.5" y="652.9" font-size="11" font-weight="400" fill="#5b6472" text-anchor="middle">[CDN]</text></g>
<g data-id="waf"><rect x="436" y="556.5" width="56" height="56" rx="12" fill="#ffffff" stroke="#e3e6ea"/><svg x="445" y="565.5" width="38" height="38" viewBox="0 0 256 256"><defs><linearGradient id="SVGYPnorcPn1" x1="0%" x2="100%" y1="100%" y2="0%"><stop offset="0%" stop-color="#bd0816"/><stop offset="100%" stop-color="#ff5252"/></linearGradient></defs><path fill="url(#SVGYPnorcPn1)" d="M0 0h256v256H0z"/><path fill="#fff" d="M46.066 131.2h-7.668v-6.4h7.677c.64-16.189 5.888-31.59 15.389-44.72l5.187 3.754C57.944 95.862 53.112 109.97 52.475 124.8h8.323v6.4h-8.332c.595 14.918 5.43 29.11 14.185 41.203l-5.187 3.754c-9.549-13.194-14.8-28.685-15.398-44.957m129.964 63.45c-13.158 9.526-28.601 14.774-44.832 15.395v7.555h-6.4v-7.555c-16.23-.621-31.68-5.869-44.838-15.395l3.75-5.184c12.064 8.732 26.215 13.564 41.088 14.179V195.2h6.4v8.445c14.874-.618 29.021-5.45 41.082-14.18zM79.96 61.587c13.158-9.526 28.608-14.774 44.838-15.392V38.4h6.4v7.795c16.23.618 31.674 5.869 44.832 15.392l-3.75 5.184c-12.06-8.73-26.208-13.561-41.082-14.176V60.8h-6.4v-8.205c-14.873.611-29.024 5.447-41.088 14.176zM217.598 124.8v6.4h-7.673c-.595 16.272-5.85 31.763-15.395 44.957l-5.19-3.754c8.754-12.093 13.593-26.285 14.185-41.203h-8.327v-6.4h8.317c-.637-14.829-5.469-28.938-14.176-40.966l5.19-3.754c9.498 13.13 14.746 28.531 15.386 44.72zm-41.69-49.12l25.089-25.088l4.525 4.525l-25.088 25.088zM80.083 180.557l-25.088 25.088l-4.525-4.525l25.088-25.088zm7.123-88.823L39.717 44.246l4.525-4.524l47.49 47.488zm81.456 72.404l47.613 47.616l-4.525 4.524l-47.616-47.612zm-67.338-33.786c.24-.426.5-.854.771-1.283c5.38-8.451 3.837-19.984 2.128-26.95c4.612 3.03 8.768 9.292 10.186 11.923c.605 1.113 1.78 1.788 3.069 1.673a3.2 3.2 0 0 0 2.771-2.125c4.765-13.536 2.342-23.712-1.018-30.307c4.074 2.371 7.23 5.783 9.319 10.131c4.531 9.415 3.523 22.301-2.637 33.626c-8.413 15.475-6.726 31.7-4.813 40.429c-4.803-2.07-9.078-4.41-12.768-6.983c-9.686-6.752-12.768-19.984-7.008-30.134m42.976-1.078a3.205 3.205 0 0 0 1.552 3.276a3.21 3.21 0 0 0 3.616-.275c.26-.208 5.507-4.54 8.048-15.02c3.063 4.454 6.266 13.443 2.003 29.955c-4.217 16.336-24.224 20.93-31.363 22.06c-1.725-6.185-5.222-23.353 3.383-39.174c6.105-11.232 7.724-23.933 4.665-34.413c5.792 6.803 10.679 17.51 8.096 33.59M95.75 127.2c-7.367 12.992-3.45 29.917 8.921 38.538c5.6 3.904 12.384 7.292 20.16 10.073q.535.19 1.079.189c.067 0 .125-.035.189-.038l.003.028c1.36-.105 33.34-2.883 39.613-27.18c8.07-31.252-8.093-40.522-8.784-40.903a3.198 3.198 0 0 0-4.72 2.477a41 41 0 0 1-1.012 5.782c-2.214-24.537-21.667-34.521-25.6-36.297c-4.032-3.088-8.934-5.21-14.617-6.218a3.18 3.18 0 0 0-3.45 1.799a3.21 3.21 0 0 0 .842 3.808c.48.406 10.451 9.052 7.606 25.507c-3.715-4.874-9.629-10.749-16.585-10.749a3.205 3.205 0 0 0-2.986 4.355c.07.173 6.592 17.36.285 27.264a40 40 0 0 0-.944 1.565"/></svg><text x="464" y="632.5" font-size="13" font-weight="600" fill="#1b1f24" text-anchor="middle">AWS WAF</text></g>
</svg>